<?xml version="1.0" encoding="UTF-8"?>
<!DOCTYPE svg PUBLIC "-//W3C//DTD SVG 1.1//EN" "http://www.w3.org/Graphics/SVG/1.1/DTD/svg11.dtd">
<!-- Creator: CorelDRAW 2018 (64-Bit Evaluation Version) -->
<svg xmlns="http://www.w3.org/2000/svg" xml:space="preserve" width="70mm" height="70.5mm" version="1.1" style="shape-rendering:geometricPrecision; text-rendering:geometricPrecision; image-rendering:optimizeQuality; fill-rule:evenodd; clip-rule:evenodd"
viewBox="0 0 7000 7050"
 xmlns:xlink="http://www.w3.org/1999/xlink">
 <defs>
  <style type="text/css">
   <![CDATA[
    .str1 {stroke:#2B2A29;stroke-width:264.58;stroke-miterlimit:22.9256}
    .str0 {stroke:#2B2A29;stroke-width:264.59;stroke-miterlimit:22.9256}
    .fil0 {fill:none}
   ]]>
  </style>
 </defs>
 <g id="Layer_x0020_1">
  <metadata id="CorelCorpID_0Corel-Layer"/>
  <polyline class="fil0 str0" points="3414.4,3688.57 3414.4,592.95 1324.2,3688.57 "/>
  <path class="fil0 str1" d="M6496.72 504.73c-611.19,-21.04 -1222.38,-42.09 -1665.01,-32.22 -442.64,9.86 -716.73,50.62 -898.91,110.93 -182.2,60.3 -272.51,140.15 -301.61,264.63 -29.11,124.48 2.98,293.62 233.92,495.75 230.92,202.13 660.68,437.25 1099.36,608.66 438.69,171.4 886.28,279.06 1148.53,538.65 262.24,259.58 339.14,671.11 247.12,875.17 -92.02,204.07 -352.96,200.67 -872.06,193.94 -519.1,-6.74 -1296.38,-16.83 -2073.66,-26.93"/>
  <path class="fil0 str1" d="M6311.72 3584.06c-611.19,-21.04 -1222.38,-42.09 -1665.01,-32.22 -442.64,9.86 -716.73,50.62 -880.91,107.07 -164.2,56.43 -218.51,128.54 -247.62,253.04 -29.11,124.48 -33,301.33 179.93,507.33 212.92,206 642.68,441.12 1081.36,612.53 438.69,171.4 886.28,279.06 1148.53,538.65 262.24,259.58 339.14,671.11 247.12,875.17 -92.02,204.07 -352.96,200.67 -872.06,193.94 -519.1,-6.74 -1296.38,-16.83 -2073.66,-26.93"/>
  <path class="fil0 str0" d="M1368.71 3612.82c-24.72,686.32 -49.43,1372.63 10.53,1897.47 59.96,524.84 204.6,888.21 535.22,1048.38 330.61,160.18 847.21,117.18 1128.2,-403.17 280.98,-520.35 326.36,-1518.04 371.74,-2515.73"/>
 </g>
</svg>
